<svg xmlns="http://www.w3.org/2000/svg" width="25.301" height="25.343" viewBox="0 0 25.301 25.343">
  <path id="Icon_feather-phone-call" data-name="Icon feather-phone-call" d="M16.883,5.74A5.3,5.3,0,0,1,21.07,9.927M16.883,1.5A9.54,9.54,0,0,1,25.31,9.917m-1.06,8.459v3.18a2.12,2.12,0,0,1-2.311,2.12,20.978,20.978,0,0,1-9.148-3.254,20.671,20.671,0,0,1-6.36-6.36A20.978,20.978,0,0,1,3.176,4.871,2.12,2.12,0,0,1,5.286,2.56h3.18a2.12,2.12,0,0,1,2.12,1.823,13.611,13.611,0,0,0,.742,2.979A2.12,2.12,0,0,1,10.851,9.6L9.5,10.945a16.961,16.961,0,0,0,6.36,6.36l1.346-1.346a2.12,2.12,0,0,1,2.237-.477,13.611,13.611,0,0,0,2.979.742A2.12,2.12,0,0,1,24.25,18.376Z" transform="translate(-1.667 0.156)" fill="none" stroke="#000" stroke-linecap="round" stroke-linejoin="round" stroke-width="3"/>
</svg>
